<svg width="50" height="50" viewBox="0 0 50 50" fill="none" xmlns="http://www.w3.org/2000/svg">
<g clip-path="url(#clip0_0_1)">
<path d="M27.9434 38.1372H23.0565V43.9422H27.9434V38.1372Z" fill="#572C00"/>
<path d="M23.0566 38.8208C23.0566 38.8208 25.1123 40.2091 27.9436 39.8875V38.137H23.0566V38.8208Z" fill="#643200"/>
<path d="M16.0098 32.021C17.3267 32.021 18.3943 30.7292 18.3943 29.1356C18.3943 27.5421 17.3267 26.2502 16.0098 26.2502C14.6928 26.2502 13.6252 27.5421 13.6252 29.1356C13.6252 30.7292 14.6928 32.021 16.0098 32.021Z" fill="#744218"/>
<path d="M34.9902 32.021C36.3072 32.021 37.3748 30.7292 37.3748 29.1356C37.3748 27.5421 36.3072 26.2502 34.9902 26.2502C33.6733 26.2502 32.6057 27.5421 32.6057 29.1356C32.6057 30.7292 33.6733 32.021 34.9902 32.021Z" fill="#744218"/>
<path d="M34.9807 23.6244C34.9807 19.3744 32.0485 16.2644 25.5001 16.2644C18.9517 16.2644 16.0195 19.3743 16.0195 23.6244C16.0195 27.8746 15.3354 39.0701 25.5001 39.0701C35.6648 39.0701 34.9807 27.8746 34.9807 23.6244Z" fill="#643200"/>
<path d="M20.8822 29.6367C21.449 29.6367 21.9085 29.103 21.9085 28.4446C21.9085 27.7862 21.449 27.2524 20.8822 27.2524C20.3154 27.2524 19.856 27.7862 19.856 28.4446C19.856 29.103 20.3154 29.6367 20.8822 29.6367Z" fill="#3B2519"/>
<path d="M20.4348 28.2438C20.6043 28.2438 20.7417 28.098 20.7417 27.9183C20.7417 27.7385 20.6043 27.5928 20.4348 27.5928C20.2653 27.5928 20.1279 27.7385 20.1279 27.9183C20.1279 28.098 20.2653 28.2438 20.4348 28.2438Z" fill="white"/>
<path d="M19.2405 25.4902C19.7258 25.7476 20.505 24.6156 22.2887 25.6004C22.6139 25.7799 22.8079 24.0649 20.896 24.0649C19.2405 24.0649 18.9473 25.3348 19.2405 25.4902Z" fill="#51362A"/>
<path d="M30.2445 29.6367C30.8113 29.6367 31.2708 29.103 31.2708 28.4446C31.2708 27.7862 30.8113 27.2524 30.2445 27.2524C29.6777 27.2524 29.2183 27.7862 29.2183 28.4446C29.2183 29.103 29.6777 29.6367 30.2445 29.6367Z" fill="#3B2519"/>
<path d="M29.7971 28.2438C29.9666 28.2438 30.104 28.098 30.104 27.9183C30.104 27.7385 29.9666 27.5928 29.7971 27.5928C29.6276 27.5928 29.4902 27.7385 29.4902 27.9183C29.4902 28.098 29.6276 28.2438 29.7971 28.2438Z" fill="white"/>
<path d="M31.7594 25.4902C31.2741 25.7476 30.4949 24.6156 28.7112 25.6004C28.386 25.7799 28.192 24.0649 30.104 24.0649C31.7594 24.0649 32.0525 25.3348 31.7594 25.4902Z" fill="#51362A"/>
<path d="M25.4999 32.6379C24.4858 32.6379 23.875 31.8346 23.875 32.2232C23.875 32.612 24.1683 33.3506 25.4999 33.3506C26.8316 33.3506 27.1249 32.612 27.1249 32.2232C27.1249 31.8344 26.5139 32.6379 25.4999 32.6379Z" fill="#795435"/>
<path d="M25.5001 36.2119C25.1493 36.2119 24.938 35.934 24.938 36.0685C24.938 36.2031 25.0394 36.4584 25.5001 36.4584C25.9608 36.4584 26.062 36.2031 26.062 36.0685C26.062 35.934 25.8507 36.2119 25.5001 36.2119Z" fill="#FCBC85"/>
<path d="M25.5 35.2216C23.8927 35.2216 22.9243 34.5274 22.9243 34.7034C22.9243 34.8794 23.3892 35.5716 25.5 35.5716C27.6109 35.5716 28.0757 34.8794 28.0757 34.7034C28.0756 34.5274 27.1073 35.2216 25.5 35.2216Z" fill="#F7945E"/>
<path d="M25.5 40.4692V47H13.6252C13.6252 44.3565 19.8801 40.4692 25.5 40.4692Z" fill="#39D59D"/>
<path d="M25.5 40.4692V47H37.3748C37.3748 44.3565 31.1199 40.4692 25.5 40.4692Z" fill="#39D59D"/>
<path d="M25.5001 40.4692C24.3047 40.4692 23.0808 40.6464 21.8943 40.9488C21.9023 40.96 23.2103 42.7498 25.5001 42.7498C27.6204 42.7498 29.0301 41.217 29.2344 40.9813C28.0078 40.6584 26.7387 40.4692 25.5001 40.4692Z" fill="#F36C21"/>
<path d="M23.0565 40.6955C23.0565 40.6955 23.7712 41.6357 25.4999 41.6357C27.2286 41.6357 27.9434 40.6955 27.9434 40.6955C27.9434 40.6955 25.4085 39.7167 23.0565 40.6955Z" fill="#643200"/>
<path d="M33.2945 15.3575C33.2945 15.3575 29.776 10.6151 22.463 12.4032C15.1501 14.1911 14.6022 18.856 14.8221 23.3945C15.0421 27.9331 15.6284 30.5956 16.322 30.2666C17.0156 29.9374 16.6547 26.9416 16.728 26.2503C16.8013 25.5589 17.461 22.4323 21.9087 22.8988C26.3562 23.3654 30.1042 21.6548 30.1042 21.6548C30.1042 21.6548 31.6129 23.6775 32.6057 24.065C34.5898 24.8393 33.9391 30.0019 34.7165 30.0019C35.4938 30.0019 39.3055 18.0786 33.2945 15.3575Z" fill="#51362A"/>
</g>
<circle cx="25" cy="25" r="23.5" stroke="#51362A" stroke-width="3"/>
<defs>
<clipPath id="clip0_0_1">
<rect width="33" height="35" fill="white" transform="translate(9 12)"/>
</clipPath>
</defs>
</svg>
